<?xml version="1.0" standalone="no"?>
<!DOCTYPE svg PUBLIC "-//W3C//DTD SVG 20010904//EN"
 "http://www.w3.org/TR/2001/REC-SVG-20010904/DTD/svg10.dtd">
<svg version="1.0" xmlns="http://www.w3.org/2000/svg"
 width="2560.000000pt" height="2560.000000pt" viewBox="0 0 2560.000000 2560.000000"
 preserveAspectRatio="xMidYMid meet">
<metadata>
Created by potrace 1.16, written by Peter Selinger 2001-2019
</metadata>
<g transform="translate(0.000000,2560.000000) scale(0.100000,-0.100000)"
fill="#000000" stroke="none">
<path d="M0 12800 l0 -12800 12800 0 12800 0 0 12800 0 12800 -12800 0 -12800
0 0 -12800z m11580 6097 c20 -14 43 -42 53 -63 33 -75 270 -977 271 -1030 2
-162 -208 -226 -306 -94 -16 21 -263 914 -284 1025 -4 24 -1 50 10 79 41 107
160 146 256 83z m2615 10 c46 -26 82 -75 91 -123 8 -41 -255 -1034 -284 -1074
-34 -46 -81 -70 -134 -70 -103 0 -173 67 -172 164 1 46 233 939 266 1020 6 15
23 40 37 53 58 56 131 67 196 30z m-4932 -1311 c18 -8 199 -182 414 -397 325
-327 383 -390 392 -424 33 -126 -83 -239 -211 -205 -38 10 -87 56 -416 383
-206 205 -382 389 -393 409 -71 138 73 295 214 234z m7214 -5 c78 -36 116
-146 77 -224 -20 -39 -738 -762 -779 -784 -16 -9 -53 -16 -82 -16 -64 0 -128
39 -150 90 -16 40 -17 117 -1 146 6 12 175 189 375 394 244 248 378 378 406
392 52 26 99 26 154 2z m-3253 -285 c280 -40 489 -89 716 -169 287 -101 498
-206 750 -372 208 -137 377 -274 542 -441 230 -232 370 -411 533 -683 103
-170 147 -258 215 -426 186 -458 264 -854 264 -1335 0 -646 -167 -1241 -502
-1792 -137 -226 -248 -368 -475 -609 -188 -199 -311 -346 -410 -486 -319 -455
-506 -931 -600 -1530 -34 -212 -172 -389 -342 -438 -44 -13 -200 -15 -1136
-13 l-1084 3 -67 33 c-88 43 -188 148 -235 247 -27 58 -40 109 -63 242 -36
212 -53 288 -97 438 -133 454 -357 874 -655 1231 -51 61 -167 189 -257 285
-263 280 -435 523 -598 843 -493 973 -495 2110 -5 3091 271 543 665 988 1182
1334 447 300 982 493 1520 550 58 6 121 13 140 15 83 10 561 -4 664 -18z
m-4841 -2107 c249 -66 476 -127 505 -136 92 -26 142 -85 142 -169 0 -94 -68
-166 -158 -167 -42 0 -756 183 -1009 259 -89 26 -121 54 -143 120 -37 110 63
235 173 219 22 -3 242 -60 490 -126z m9403 112 c52 -24 94 -78 101 -131 8 -54
-20 -124 -61 -155 -43 -32 -1013 -296 -1093 -297 -162 -2 -224 206 -92 304 29
22 1028 295 1084 297 11 0 39 -8 61 -18z m-3801 -6512 c111 -20 178 -69 224
-161 27 -52 31 -72 31 -138 0 -95 -29 -159 -100 -223 -42 -38 -94 -61 -463
-208 l-415 -164 371 -5 372 -5 56 -26 c147 -69 215 -229 163 -382 -20 -60 -88
-135 -150 -167 l-49 -25 -1230 0 -1230 0 -54 30 c-185 103 -215 347 -59 491
38 35 100 63 467 210 l424 169 -389 5 -389 5 -51 27 c-254 134 -196 512 87
567 68 13 2313 13 2384 0z m-387 -1767 c-12 -172 -164 -326 -350 -352 -82 -12
-814 -12 -896 0 -185 26 -333 175 -349 350 l-6 60 803 0 802 0 -4 -58z"/>
<path d="M12600 16794 c-644 -56 -1193 -278 -1670 -677 -529 -442 -883 -1054
-999 -1727 -85 -489 -42 -1013 120 -1475 141 -401 351 -737 669 -1070 285
-298 444 -501 616 -785 268 -444 436 -914 529 -1482 l6 -38 929 0 930 0 5 23
c2 12 14 81 26 152 68 413 238 886 457 1270 58 102 208 327 282 425 80 105
225 271 381 435 206 218 316 363 455 600 186 318 325 753 364 1137 16 158 8
588 -14 728 -51 329 -184 723 -328 975 -310 543 -738 953 -1263 1210 -308 150
-568 230 -915 280 -100 15 -486 27 -580 19z m280 -1854 c55 -28 83 -72 88
-140 5 -63 -9 -99 -52 -139 -14 -14 -26 -28 -26 -33 0 -4 232 -450 517 -991
l516 -982 -27 -75 c-325 -915 -458 -1470 -421 -1761 l7 -56 -243 -6 c-308 -9
-820 -9 -975 -1 l-119 7 3 141 c3 116 -1 168 -22 290 -43 247 -120 529 -237
866 -60 171 -174 471 -204 534 -15 31 -14 35 12 82 15 27 251 477 524 999
l496 950 -38 42 c-44 48 -53 76 -47 142 12 119 139 187 248 131z m740 -4510
l0 -190 -820 0 -820 0 0 190 0 190 820 0 820 0 0 -190z m-122 -567 l2 -243
-700 0 -700 0 0 238 c0 131 3 242 7 245 3 4 317 6 697 5 l691 -3 3 -242z"/>
<path d="M12738 13902 l-3 -714 -68 -24 c-126 -42 -209 -114 -264 -230 -59
-125 -61 -259 -4 -379 161 -340 647 -338 803 3 37 80 48 199 28 291 -31 143
-138 259 -288 311 l-77 28 -3 714 -2 715 -60 0 -60 0 -2 -715z"/>
</g>
</svg>
